<?xml version="1.0" standalone="no"?><!DOCTYPE svg PUBLIC "-//W3C//DTD SVG 1.1//EN" "http://www.w3.org/Graphics/SVG/1.1/DTD/svg11.dtd"><svg t="1485586418011" class="icon" style="" viewBox="0 0 1316 1024" version="1.1" xmlns="http://www.w3.org/2000/svg" p-id="2227" xmlns:xlink="http://www.w3.org/1999/xlink" width="257.03125" height="200"><defs><style type="text/css"></style></defs><path d="M845.991606 937.525847L679.260396 544.71842q-14.129764 27.694337-89.582701 172.665711T477.487372 937.525847q-0.565191 0.565191-15.54274 0.282595T446.967083 936.960656q-46.345624-109.081775-144.406184-331.766848T155.893954 268.340245q-11.869001-28.259527-37.585172-60.757984T59.811561 150.780612t-57.649435-24.303194q0-2.825953-0.282595-13.564573t-0.282596-15.260144h329.506087v28.259527q-22.042431 1.130381-44.932648 9.043048T248.585202 159.25847t-5.651905 36.172195q14.694954 33.346242 122.363753 282.03008T498.399422 782.663638q17.520907-34.476623 79.126676-150.623279T651.566059 492.155699q-10.73862-22.042431-71.214008-158.818542T503.486137 166.605947q-21.477241-38.998147-113.603299-40.128529v-28.259527l289.942748 0.565191v26.563955q-33.911433 1.130381-52.845315 14.129764T619.915389 178.474948q18.651288 39.563338 49.171577 107.103608t48.606387 105.973227q62.17096-120.950776 97.777964-205.164167 13.564573-31.08548-5.651906-44.932648T736.909831 126.477418q0.565191-3.956334 0.565191-14.129763v-13.564573q36.172195 0 96.364987-0.282595t101.734298-0.565191 52.280125-0.282595v27.694336q-35.041814 1.130381-67.257674 18.651288t-50.867149 45.780434l-120.385586 249.81422q7.347477 18.651288 72.061794 163.905257t68.670651 154.862209l249.24903-574.798782q-7.912668-21.477241-27.976932-35.324409t-36.737386-17.803502-31.368075-4.521524v-28.259527l259.98765 2.260762 0.565191 1.130381-0.565191 24.868384q-78.561485 2.260762-113.603299 81.952628-297.290225 687.2717-315.941513 729.660991h-27.694337z" p-id="2228"></path></svg>